<?xml version="1.0" encoding="utf-8"?>
<!-- Generator: Adobe Illustrator 25.3.1, SVG Export Plug-In . SVG Version: 6.00 Build 0)  -->
<svg version="1.1" id="Camada_1" xmlns="http://www.w3.org/2000/svg" xmlns:xlink="http://www.w3.org/1999/xlink" x="0px" y="0px"
	 viewBox="0 0 150 42" style="enable-background:new 0 0 150 42;" xml:space="preserve">
<g>
	<path d="M124.8,9.3l2.5-2.5l-2.6-2.6l-2.5,2.5h-17v17l-2.5,2.5l2.6,2.6l2.5-2.5h17V9.3z M108.9,10.4h9.7l-9.7,9.7V10.4z
		 M111.5,22.7l9.7-9.7v9.7H111.5z"/>
	<g>
		<g>
			<path d="M26.5,15.3c0.3,0,0.5,0,0.8,0.1c0.3,0.1,0.5,0.1,0.8,0.2c0.3,0.1,0.5,0.2,0.7,0.4c0.2,0.2,0.4,0.3,0.6,0.5
				c0.2,0.2,0.3,0.4,0.4,0.7c0.1,0.3,0.1,0.6,0.1,0.9c0,0.3-0.1,0.6-0.2,0.9c-0.1,0.3-0.3,0.5-0.5,0.8c-0.2,0.2-0.4,0.4-0.6,0.6
				c-0.2,0.2-0.5,0.2-0.7,0.3v0c0.3,0,0.6,0.1,0.9,0.2c0.3,0.1,0.6,0.3,0.8,0.5c0.3,0.2,0.5,0.5,0.6,0.8c0.2,0.3,0.2,0.7,0.2,1.1
				c0,0.4-0.1,0.8-0.2,1.2c-0.1,0.4-0.3,0.7-0.6,0.9c-0.3,0.3-0.5,0.5-0.9,0.7c-0.3,0.2-0.7,0.3-1.1,0.4c-0.4,0.1-0.8,0.1-1.2,0.1
				h-3.3c-0.3,0-0.5-0.1-0.6-0.2c-0.1-0.1-0.2-0.3-0.2-0.6v-9.7c0-0.3,0.1-0.5,0.2-0.6c0.1-0.1,0.3-0.2,0.6-0.2H26.5z M25.9,16.8
				h-1.3V20l1.1,0c0.2,0,0.4,0,0.6-0.1c0.2,0,0.4-0.1,0.6-0.2c0.2-0.1,0.4-0.2,0.5-0.3c0.1-0.1,0.3-0.3,0.4-0.5
				c0.1-0.2,0.1-0.4,0.1-0.7C28,17.3,27.3,16.8,25.9,16.8z M24.6,21.4v3.7h1.7c0.2,0,0.4,0,0.7-0.1c0.2,0,0.4-0.1,0.6-0.2
				s0.4-0.2,0.5-0.3c0.1-0.1,0.3-0.3,0.4-0.5c0.1-0.2,0.1-0.4,0.1-0.7c0-0.2,0-0.4-0.1-0.6c-0.1-0.2-0.1-0.3-0.2-0.5
				c-0.1-0.1-0.2-0.2-0.4-0.3c-0.2-0.1-0.3-0.2-0.5-0.2c-0.2-0.1-0.3-0.1-0.5-0.1c-0.2,0-0.4-0.1-0.6-0.1c-0.2,0-0.4,0-0.6,0
				L24.6,21.4z"/>
			<path d="M40,25h4.3c0.3,0,0.5,0,0.6,0.1c0.1,0.1,0.1,0.3,0.1,0.6v0c0,0.3,0,0.5-0.1,0.6c-0.1,0.1-0.3,0.1-0.6,0.1h-5.6
				c-0.3,0-0.5-0.1-0.6-0.2c-0.1-0.1-0.2-0.3-0.2-0.6v-9.7c0-0.3,0.1-0.5,0.2-0.6c0.1-0.1,0.3-0.2,0.6-0.2h0.5
				c0.3,0,0.5,0.1,0.6,0.2c0.1,0.1,0.2,0.3,0.2,0.6V25z"/>
			<path d="M56,18.2l-3.3,7.6c-0.1,0.3-0.2,0.5-0.4,0.6c-0.1,0.1-0.4,0.1-0.7,0.1h-0.5c-0.4,0-0.5-0.1-0.5-0.3c0-0.1,0-0.2,0.1-0.4
				l4.5-10c0.1-0.2,0.2-0.4,0.3-0.4c0.1-0.1,0.3-0.1,0.5-0.1h0c0.2,0,0.4,0,0.5,0.1c0.1,0.1,0.2,0.2,0.3,0.4l4.4,10
				c0.1,0.2,0.1,0.3,0.1,0.4c0,0.1,0,0.2-0.1,0.2c-0.1,0-0.2,0.1-0.4,0.1h-0.7c-0.3,0-0.5,0-0.7-0.1c-0.1-0.1-0.3-0.3-0.4-0.6
				L56,18.2z"/>
			<path d="M75.4,26.1c-0.7,0.4-1.5,0.6-2.4,0.6c-0.7,0-1.3-0.1-1.9-0.3c-0.6-0.2-1.1-0.5-1.5-0.8c-0.4-0.3-0.8-0.8-1.1-1.2
				c-0.3-0.5-0.6-1-0.7-1.6c-0.2-0.6-0.2-1.2-0.2-1.9c0-0.7,0.1-1.3,0.2-1.9c0.2-0.6,0.4-1.1,0.7-1.6c0.3-0.5,0.7-0.9,1.2-1.3
				c0.4-0.4,1-0.6,1.6-0.8c0.6-0.2,1.2-0.3,1.9-0.3c0.9,0,1.6,0.2,2.3,0.6c0.7,0.4,1.2,0.9,1.6,1.6c0.1,0.2,0.1,0.3,0.1,0.4
				c0,0.1,0,0.2-0.1,0.2C77,18,76.9,18,76.7,18.1l0,0c-0.2,0.1-0.3,0.1-0.4,0.1c-0.1,0-0.2,0-0.2-0.1c-0.1-0.1-0.2-0.1-0.3-0.3
				c-0.7-0.8-1.6-1.2-2.6-1.2c-0.5,0-0.9,0.1-1.3,0.2c-0.4,0.2-0.7,0.4-1,0.6c-0.3,0.3-0.5,0.6-0.7,0.9s-0.3,0.8-0.4,1.2
				c-0.1,0.4-0.1,0.8-0.1,1.3c0,0.4,0,0.9,0.1,1.3c0.1,0.4,0.2,0.8,0.4,1.2c0.2,0.4,0.4,0.7,0.7,0.9c0.3,0.3,0.6,0.5,1,0.6
				c0.4,0.2,0.8,0.2,1.3,0.2c1.1,0,2.1-0.4,2.8-1.3c0.2-0.2,0.4-0.3,0.5-0.3c0.1,0,0.2,0,0.4,0.1l0,0c0.2,0.1,0.4,0.3,0.4,0.4
				c0,0.1,0,0.2-0.1,0.4C76.7,25.2,76.1,25.8,75.4,26.1z"/>
			<path d="M93.3,26c0.1,0.2,0.2,0.3,0.2,0.4c0,0.1-0.2,0.2-0.5,0.2h-1c-0.3,0-0.6,0-0.7-0.1c-0.1-0.1-0.3-0.2-0.5-0.5l-4.2-5.1v5
				c0,0.3-0.1,0.5-0.2,0.6s-0.3,0.2-0.6,0.2h-0.5c-0.3,0-0.5-0.1-0.6-0.2c-0.1-0.1-0.2-0.3-0.2-0.6v-9.7c0-0.3,0.1-0.5,0.2-0.6
				c0.1-0.1,0.3-0.2,0.6-0.2h0.5c0.3,0,0.5,0.1,0.6,0.2c0.1,0.1,0.2,0.3,0.2,0.6v4.2l4-4.4c0.2-0.2,0.4-0.4,0.5-0.5
				c0.1-0.1,0.4-0.1,0.7-0.1h0.8c0.3,0,0.4,0.1,0.4,0.2c0,0.1-0.1,0.2-0.2,0.4l-4.1,4.5L93.3,26z"/>
		</g>
		<path d="M22.7,33.2h0.8v2.9H25v0.7h-2.3V33.2z"/>
		<path d="M30.9,36.1h-1.6l-0.2,0.6h-0.8l1.4-3.6h1l1.4,3.6h-0.8L30.9,36.1z M29.5,35.5h1.2l-0.6-1.7L29.5,35.5z"/>
		<path d="M36.2,34.3v2.4h-0.8v-3.6h0.8l1.7,2.3v-2.3h0.8v3.6H38L36.2,34.3z"/>
		<path d="M45.2,35.6l0.7,0.3c-0.2,0.4-0.7,0.8-1.4,0.9L44.3,37c0.1,0,0.1-0.1,0.2-0.1c0.2,0,0.4,0.2,0.4,0.4c0,0.3-0.3,0.5-0.6,0.5
			c-0.3,0-0.5-0.1-0.6-0.2l0.1-0.3c0.1,0.1,0.3,0.2,0.4,0.2c0.1,0,0.3-0.1,0.3-0.2c0-0.1-0.1-0.1-0.2-0.1c-0.1,0-0.1,0-0.2,0.1
			L44,37.1l0.1-0.3c-1-0.1-1.7-0.8-1.7-1.9c0-1.1,0.8-1.9,1.9-1.9c0.8,0,1.3,0.4,1.5,0.9l-0.7,0.3c-0.2-0.3-0.5-0.5-0.9-0.5
			c-0.6,0-1.1,0.5-1.1,1.2s0.5,1.2,1.1,1.2C44.7,36.1,45,35.9,45.2,35.6z"/>
		<path d="M51.7,36.1h-1.6l-0.2,0.6H49l1.4-3.6h1l1.4,3.6h-0.8L51.7,36.1z M50.3,35.5h1.2l-0.6-1.7L50.3,35.5z"/>
		<path d="M59.4,34.2l-1,2.6H58l-1-2.6v2.6h-0.8v-3.6h1.1l0.9,2.3l0.9-2.3h1.1v3.6h-0.8V34.2z"/>
		<path d="M64,33.2h2.6v0.7h-1.8v0.8h1.7v0.7h-1.7v0.8h1.8v0.7H64V33.2z"/>
		<path d="M71.1,34.3v2.4h-0.8v-3.6h0.8l1.7,2.3v-2.3h0.8v3.6h-0.7L71.1,34.3z"/>
		<path d="M78.2,33.8h-1.1v-0.7H80v0.7H79v2.9h-0.8V33.8z"/>
		<path d="M85.2,33.1c1.1,0,1.9,0.8,1.9,1.9c0,1.1-0.8,1.9-1.9,1.9c-1.1,0-1.9-0.8-1.9-1.9C83.4,33.9,84.1,33.1,85.2,33.1z
			 M85.2,33.8c-0.7,0-1.1,0.5-1.1,1.2c0,0.7,0.4,1.2,1.1,1.2s1.1-0.5,1.1-1.2C86.3,34.3,85.9,33.8,85.2,33.8z"/>
		<path d="M91,35.7c0.3,0.3,0.7,0.5,1.1,0.5c0.4,0,0.6-0.2,0.6-0.4c0-0.3-0.3-0.4-0.7-0.5c-0.6-0.1-1.3-0.3-1.3-1.1
			c0-0.6,0.5-1.1,1.4-1.1c0.6,0,1.1,0.2,1.4,0.5L93,34.2c-0.3-0.3-0.7-0.4-1-0.4c-0.3,0-0.5,0.2-0.5,0.4c0,0.2,0.3,0.3,0.7,0.4
			c0.6,0.1,1.4,0.3,1.4,1.1c0,0.7-0.5,1.2-1.4,1.2c-0.7,0-1.2-0.2-1.5-0.6L91,35.7z"/>
	</g>
</g>
</svg>
