<svg width="377" height="105" viewBox="0 0 377 105" fill="none" xmlns="http://www.w3.org/2000/svg">
<g clip-path="url(#clip0)">
<path d="M139.25 45.09V59.09H135.32V21.38C139.367 20.7765 143.449 20.4425 147.54 20.38C157.14 20.38 162.05 24.72 162.05 32.82C162.05 39.37 157.74 45.32 147.54 45.32C143.12 45.36 140.23 45.2 139.25 45.09ZM139.25 24.33V41.82C139.85 41.88 142.31 41.98 147.38 41.98C154.25 41.98 158.12 38.5 158.12 32.86C158.12 26.69 154.12 23.8 147.6 23.8C144.809 23.8167 142.021 23.9937 139.25 24.33Z" fill="#231F20"/>
<path d="M169.24 21.38C173.143 20.8109 177.077 20.477 181.02 20.38C190.57 20.38 196.02 23.59 196.02 31.75C196.02 37.44 193.29 41.19 186.48 42.53L192.31 52.35C193.62 54.55 194.66 55.84 196.84 55.84C197.282 55.8496 197.723 55.7958 198.15 55.68V58.79C197.436 59.065 196.674 59.1909 195.91 59.16C192.31 59.16 190.57 57.07 188.66 53.75L182.44 43.02C181.68 43.02 180.91 43.02 180.1 43.02C177.75 43.02 174.75 42.91 173.17 42.81V59.1H169.24V21.38ZM181.08 23.8C178.435 23.804 175.792 23.981 173.17 24.33V39.57C173.82 39.57 177.26 39.73 179.93 39.73C188.39 39.73 192.09 37.91 192.09 31.9C192.09 25.24 187.57 23.8 181.08 23.8Z" fill="#231F20"/>
<path d="M234.41 40.05C234.41 49.87 231.58 59.69 218.81 59.69C206.04 59.69 203.22 49.87 203.22 40.05C203.22 30.23 206.05 20.42 218.81 20.42C231.57 20.42 234.41 30.23 234.41 40.05ZM207.14 40.05C207.14 47.05 208.29 56.31 218.81 56.31C229.33 56.31 230.48 47.08 230.48 40.05C230.48 33.02 229.34 23.8 218.81 23.8C208.28 23.8 207.14 33 207.14 40.05Z" fill="#231F20"/>
<path d="M257.86 59.69C244.44 59.69 240.63 50.03 240.63 40.05C240.63 30.07 244.44 20.42 257.86 20.42C261.01 20.3874 264.139 20.9506 267.08 22.08L266 25.24C263.507 24.2356 260.837 23.7458 258.15 23.8C245.99 23.8 244.57 33.61 244.57 40.05C244.57 46.49 246 56.31 258.13 56.31C260.825 56.3671 263.503 55.8737 266 54.86L267.1 58.02C264.154 59.159 261.018 59.7258 257.86 59.69Z" fill="#231F20"/>
<path d="M271.49 59.1L285.34 21H290.8L304.65 59.1H300.56L296.31 47.19H279.78L275.58 59.1H271.49ZM281 43.81H295.13L288.13 23.96L281 43.81Z" fill="#231F20"/>
<path d="M311 21.38C314.903 20.8105 318.837 20.4766 322.78 20.38C332.32 20.38 337.78 23.59 337.78 31.75C337.78 37.44 335.06 41.19 328.24 42.53L334.08 52.35C335.38 54.55 336.42 55.84 338.6 55.84C339.042 55.8496 339.483 55.7958 339.91 55.68V58.79C339.197 59.0667 338.434 59.1926 337.67 59.16C334.08 59.16 332.33 57.07 330.42 53.75L324.21 43.02C323.44 43.02 322.68 43.02 321.86 43.02C319.51 43.02 316.52 42.91 314.93 42.81V59.1H311V21.38ZM322.83 23.8C320.185 23.804 317.542 23.981 314.92 24.33V39.57C315.58 39.57 319.01 39.73 321.69 39.73C330.14 39.73 333.85 37.91 333.85 31.9C333.88 25.24 329.35 23.8 322.86 23.8H322.83Z" fill="#231F20"/>
<path d="M347.07 21.38C350.73 20.7689 354.43 20.4347 358.14 20.38C372.7 20.38 376.14 29.12 376.14 39.96C376.14 50.96 372.6 59.65 358.03 59.65C354.343 59.5924 350.666 59.2581 347.03 58.65L347.07 21.38ZM351 24.28V55.82C353.386 56.1464 355.792 56.3101 358.2 56.31C365.02 56.31 372.2 54.43 372.2 40C372.2 26.85 366.37 23.8 358.08 23.8C355.713 23.8261 353.349 23.9864 351 24.28Z" fill="#231F20"/>
<path d="M223 88.33C220.899 88.3257 218.821 87.8971 216.89 87.07V66.74H220.04V72.67C221.068 72.3767 222.131 72.2187 223.2 72.2C227.99 72.2 230.32 74.82 230.32 80.2C230.32 85.58 228.11 88.33 223 88.33ZM223 74.77C222.003 74.7545 221.012 74.9135 220.07 75.24V85.33C221.017 85.6284 222.007 85.7703 223 85.75C226.27 85.75 227.23 83.75 227.23 80.25C227.23 76.75 226.24 74.77 223 74.77Z" fill="#231F20"/>
<path d="M238.91 81C238.91 83.12 239.56 85.83 243.39 85.83C244.832 85.8365 246.264 85.5894 247.62 85.1L248.05 87.51C246.473 88.1074 244.797 88.4026 243.11 88.38C237.97 88.38 235.75 85.38 235.75 80.3C235.75 75.77 237.63 72.3 242.54 72.3C247.23 72.3 248.82 75.15 248.82 78.56C248.815 79.3965 248.728 80.2304 248.56 81.05L238.91 81ZM245.81 78.14C245.81 76.44 245.3 74.73 242.54 74.73C239.78 74.73 239.08 76.83 238.93 78.79H245.78C245.78 78.51 245.81 78.32 245.81 78.09V78.14Z" fill="#231F20"/>
<path d="M264.84 78.29C264.84 75.1 262.99 74.77 261.06 74.77C259.954 74.7552 258.852 74.9034 257.79 75.21V88H254.67V73.45C256.745 72.6148 258.963 72.1903 261.2 72.2C265.66 72.2 267.99 73.76 267.99 78.54V88H264.84V78.29Z" fill="#231F20"/>
<path d="M276.94 81C276.94 83.12 277.59 85.83 281.42 85.83C282.862 85.8379 284.294 85.5908 285.65 85.1L286.08 87.51C284.503 88.1074 282.827 88.4026 281.14 88.38C276 88.38 273.78 85.38 273.78 80.3C273.78 75.77 275.66 72.3 280.57 72.3C285.26 72.3 286.85 75.15 286.85 78.56C286.845 79.3965 286.758 80.2304 286.59 81.05L276.94 81ZM283.84 78.14C283.84 76.44 283.33 74.73 280.57 74.73C277.81 74.73 277.11 76.83 276.97 78.79H283.81C283.81 78.51 283.84 78.32 283.84 78.09V78.14Z" fill="#231F20"/>
<path d="M293.92 72.53V71.22C293.92 66.94 296.56 66.05 299.09 66.05C299.972 66.0227 300.853 66.1341 301.7 66.38L301.31 68.81C300.743 68.6579 300.157 68.5839 299.57 68.59C297.9 68.59 297.07 69.29 297.07 71.13V72.53H301.31V75.05H297.07V88H293.92V75.05H291.54V72.53H293.92Z" fill="#231F20"/>
<path d="M311.45 65.51L312.9 67.3L308.29 70.69L307.1 69.18L311.45 65.51ZM310.28 88H307.16V72.53H310.28V88Z" fill="#231F20"/>
<path d="M323.77 74.77C319.85 74.77 319.4 77.77 319.4 80.22C319.4 82.9 319.91 85.75 323.83 85.75C324.888 85.7494 325.938 85.5597 326.93 85.19L327.55 87.57C326.289 88.1166 324.923 88.3762 323.55 88.33C317.98 88.33 316.25 84.91 316.25 80.25C316.25 75.59 318.01 72.25 323.55 72.25C324.922 72.2042 326.288 72.4603 327.55 73L326.93 75.35C325.912 74.9999 324.846 74.8044 323.77 74.77Z" fill="#231F20"/>
<path d="M336.81 68.53C336.84 68.9072 336.756 69.2847 336.568 69.6132C336.38 69.9417 336.098 70.2058 335.757 70.3711C335.417 70.5364 335.034 70.5952 334.66 70.5396C334.286 70.4841 333.937 70.317 333.659 70.06C333.382 69.803 333.188 69.4682 333.103 69.0994C333.019 68.7305 333.048 68.3448 333.186 67.9926C333.325 67.6404 333.566 67.3381 333.879 67.1254C334.192 66.9126 334.562 66.7992 334.94 66.8C335.181 66.7707 335.425 66.7942 335.655 66.8688C335.886 66.9434 336.098 67.0673 336.276 67.2319C336.454 67.3965 336.594 67.5979 336.686 67.8221C336.778 68.0462 336.82 68.2878 336.81 68.53ZM336.5 88H333.37V72.53H336.5V88Z" fill="#231F20"/>
<path d="M349.45 88.33C344.14 88.33 342.45 84.83 342.45 80.27C342.45 75.71 344.13 72.2 349.45 72.2C354.77 72.2 356.45 75.72 356.45 80.27C356.45 84.82 354.76 88.33 349.45 88.33ZM349.45 74.77C345.84 74.77 345.61 77.98 345.61 80.27C345.61 82.56 345.84 85.75 349.45 85.75C353.06 85.75 353.28 82.57 353.28 80.27C353.28 77.97 353.05 74.77 349.45 74.77Z" fill="#231F20"/>
<path d="M368.22 78.77C370.69 79.55 373.36 80.3 373.36 83.77C373.36 87.01 370.81 88.3 367.12 88.3C365.448 88.3086 363.786 88.0416 362.2 87.51L362.63 85.11C364.007 85.552 365.444 85.778 366.89 85.78C369.19 85.78 370.32 85.16 370.32 83.96C370.32 82.76 369.07 82.12 367.09 81.56C364.09 80.72 361.81 79.8 361.81 76.67C361.81 73.31 364.93 72.17 368.14 72.17C369.663 72.1817 371.179 72.3867 372.65 72.78L372.17 75.18C370.92 74.8476 369.633 74.6795 368.34 74.68C366.15 74.68 364.87 75.32 364.87 76.55C364.87 77.78 366.23 78.12 368.22 78.77Z" fill="#231F20"/>
<path d="M107.84 19.57C105.7 11.75 100.56 7.3 92.4 6.27C85.2067 5.36333 78.01 4.47 70.81 3.59C65.44 2.51 60 2.08 54.56 1.29C51.07 0.789995 47.56 0.389995 44.07 0.0299955C42.9877 -0.00445537 41.9045 0.0456972 40.83 0.179995C36.8386 0.626221 33.1736 2.59662 30.6 5.68C27.7 8.41 26.69 11.95 26.15 15.68C25.93 17.24 26.15 19.23 25.28 20.24C24.41 21.25 22.28 20.38 20.79 20.61C17.0067 20.1893 13.183 20.8845 9.79 22.61L9.68001 22.66L9.57 22.72C3.42 26.06 0.250005 31.25 0.140005 38C-0.0399951 48.96 -0.0399951 59.9267 0.140005 70.9C0.260005 77.44 3.38 82.48 9.25 85.74C12.1024 87.4652 15.3991 88.3137 18.73 88.18C18.73 92.04 18.73 97.63 18.73 99.05C18.62 102.28 20.55 104.45 23.59 104.51C26.63 104.57 28.52 102.28 28.46 99.05V88.05H44.11C53.11 88.16 62.11 88.23 71.11 88.05C79.76 88.17 87.84 80.62 88.23 71.88C88.32 69.98 88.81 69.26 90.82 68.88C98.35 67.32 103.26 61.52 104.22 53.83C105.34 44.93 106.63 36.06 107.84 27.18C107.9 26.81 107.84 26.35 108.31 26.18V20.18C108 20.08 107.91 19.83 107.84 19.57ZM78.45 58.35C78.45 59.3 78.18 59.63 77.19 59.61C75.29 59.61 73.39 59.61 71.49 59.61H46.14C43.98 59.61 41.81 59.5 39.65 59.61C38.9881 59.5906 38.3293 59.7067 37.7139 59.9512C37.0985 60.1956 36.5396 60.5632 36.0714 61.0314C35.6032 61.4996 35.2356 62.0585 34.9912 62.6739C34.7467 63.2893 34.6306 63.9481 34.65 64.61C34.71 67.43 36.71 69.29 39.81 69.3C41.91 69.3 44 69.3 46.1 69.23H71.49C73.3 69.23 75.13 69.37 76.94 69.23C78.29 69.16 78.52 69.7 78.44 70.86C78.17 74.6 75.75 77.14 71.08 78.48H44.17H28.44V61.39C28.44 57.72 28.57 54.05 28.44 50.39C28.4415 49.7475 28.3107 49.1116 28.0558 48.5219C27.8008 47.9322 27.4272 47.4013 26.9581 46.9623C26.4891 46.5232 25.9347 46.1855 25.3294 45.97C24.7241 45.7546 24.081 45.6661 23.44 45.71C22.799 45.6946 22.1617 45.8104 21.5671 46.0505C20.9726 46.2906 20.4335 46.6497 19.9829 47.1059C19.5324 47.5621 19.1799 48.1056 18.9473 48.7031C18.7146 49.3005 18.6066 49.9393 18.63 50.58C18.63 54.19 18.63 57.79 18.69 61.4V78.56C14.87 78.34 11.84 76.73 10.18 72.73C10.18 60.96 10.1 49.19 10.1 37.42C10.1696 36.6249 10.3136 35.8382 10.53 35.07C11.3393 33.856 12.3117 32.759 13.42 31.81C15.66 30.11 18.23 30.36 20.75 30.2H47.36H71.48C75.48 31.31 78.23 33.64 78.36 37.85C78.58 44.7 78.42 51.53 78.45 58.35ZM98.15 24.07C97.73 27.45 97.27 30.84 96.81 34.22C95.96 40.53 95.13 46.83 94.25 53.13C94.1271 54.3782 93.678 55.5722 92.9479 56.5919C92.2177 57.6117 91.2321 58.4215 90.09 58.94C88.69 59.62 88.27 59.38 88.28 57.79C88.28 50.79 88.44 43.84 88.21 36.88C87.92 28.29 80.21 20.94 71.49 20.64H40.42L36.55 20.56C36.08 20.56 35.67 20.56 35.55 19.87C35.3184 17.8251 35.7529 15.76 36.7888 13.9818C37.8248 12.2036 39.4069 10.8071 41.3 10C42.4244 9.73702 43.5889 9.69288 44.73 9.87C53.2433 11.0033 61.7533 12.1167 70.26 13.21C77.54 14.21 84.82 15.15 92.1 16.21C93.0173 16.3194 93.9036 16.6109 94.7068 17.0673C95.51 17.5238 96.214 18.136 96.7775 18.8681C97.341 19.6001 97.7526 20.4374 97.9883 21.3306C98.224 22.2239 98.279 23.1552 98.15 24.07Z" fill="#231F20"/>
</g>
<defs>
<clipPath id="clip0">
<rect width="376.14" height="104.55" fill="white"/>
</clipPath>
</defs>
</svg>
