<svg width="241" height="189" viewBox="0 0 241 189" fill="none" xmlns="http://www.w3.org/2000/svg">
<g clip-path="url(#clip0)">
<path d="M3.93 145.76V159.76H0V122.05C4.04578 121.438 8.12863 121.104 12.22 121.05C21.81 121.05 26.72 125.4 26.72 133.5C26.72 140.04 22.41 146 12.22 146C7.8 146 4.91 145.87 3.93 145.76ZM3.93 125V142.49C4.53 142.49 6.98 142.65 12.05 142.65C18.92 142.65 22.79 139.16 22.79 133.53C22.79 127.36 18.79 124.46 12.27 124.46C9.48173 124.474 6.69678 124.654 3.93 125Z" fill="#231F20"/>
<path d="M33.92 122.05C37.8225 121.476 41.7566 121.142 45.7 121.05C55.24 121.05 60.7 124.27 60.7 132.43C60.7 138.11 57.97 141.87 51.15 143.21L57 153.06C58.31 155.26 59.34 156.55 61.52 156.55C61.9628 156.56 62.4045 156.503 62.83 156.38V159.5C62.1202 159.776 61.3609 159.902 60.6 159.87C57 159.87 55.25 157.78 53.34 154.45L47.13 143.72C46.36 143.78 45.6 143.78 44.78 143.78C42.44 143.78 39.44 143.67 37.85 143.56V159.76H33.92V122.05ZM45.75 124.46C43.1044 124.467 40.462 124.647 37.84 125V140.24C38.5 140.24 41.94 140.4 44.61 140.4C53.06 140.4 56.77 138.57 56.77 132.56C56.77 125.91 52.24 124.46 45.75 124.46Z" fill="#231F20"/>
<path d="M99.09 140.72C99.09 150.54 96.25 160.35 83.49 160.35C70.73 160.35 67.89 150.54 67.89 140.72C67.89 130.9 70.73 121.08 83.49 121.08C96.25 121.08 99.09 130.9 99.09 140.72ZM71.82 140.72C71.82 147.72 72.96 156.97 83.49 156.97C94.02 156.97 95.16 147.75 95.16 140.72C95.16 133.69 94 124.46 83.49 124.46C72.98 124.46 71.82 133.69 71.82 140.72Z" fill="#231F20"/>
<path d="M122.54 160.35C109.12 160.35 105.3 150.7 105.3 140.72C105.3 130.74 109.12 121.08 122.54 121.08C125.688 121.046 128.814 121.613 131.75 122.75L130.66 125.91C128.169 124.899 125.498 124.406 122.81 124.46C110.65 124.46 109.23 134.28 109.23 140.72C109.23 147.16 110.65 157 122.81 157C125.497 157.054 128.167 156.564 130.66 155.56L131.75 158.72C128.811 159.841 125.685 160.394 122.54 160.35Z" fill="#231F20"/>
<path d="M136.17 159.76L150 121.67H155.45L169.3 159.76H165.21L161 147.85H144.46L140.26 159.76H136.17ZM145.66 144.47H159.78L152.78 124.62L145.66 144.47Z" fill="#231F20"/>
<path d="M175.7 122.05C179.603 121.476 183.537 121.142 187.48 121.05C197.03 121.05 202.48 124.27 202.48 132.43C202.48 138.11 199.75 141.87 192.94 143.21L198.77 153.03C200.08 155.23 201.12 156.52 203.3 156.52C203.743 156.53 204.184 156.473 204.61 156.35V159.47C203.896 159.745 203.134 159.871 202.37 159.84C198.77 159.84 197.03 157.75 195.12 154.42L188.9 143.69C188.14 143.75 187.37 143.75 186.56 143.75C184.21 143.75 181.21 143.64 179.63 143.53V159.73H175.7V122.05ZM187.54 124.46C184.894 124.467 182.252 124.647 179.63 125V140.24C180.28 140.24 183.72 140.4 186.39 140.4C194.84 140.4 198.55 138.57 198.55 132.56C198.55 125.91 194 124.46 187.54 124.46Z" fill="#231F20"/>
<path d="M211.75 122.05C215.409 121.436 219.11 121.102 222.82 121.05C237.38 121.05 240.82 129.8 240.82 140.63C240.82 151.63 237.27 160.32 222.71 160.32C219.024 160.26 215.347 159.926 211.71 159.32L211.75 122.05ZM215.67 124.94V156.49C218.056 156.812 220.462 156.973 222.87 156.97C229.69 156.97 236.87 155.1 236.87 140.66C236.87 127.52 231.03 124.46 222.74 124.46C220.376 124.492 218.016 124.652 215.67 124.94Z" fill="#231F20"/>
<path d="M87.7 189C85.6026 188.995 83.5278 188.566 81.6 187.74V167.41H84.75V173.34C85.774 173.041 86.8333 172.879 87.9 172.86C92.7 172.86 95.03 175.49 95.03 180.86C95.03 186.23 92.79 189 87.7 189ZM87.7 175.44C86.7055 175.42 85.7158 175.583 84.78 175.92V186C85.7236 186.3 86.7102 186.442 87.7 186.42C90.97 186.42 91.94 184.42 91.94 180.91C91.94 177.4 90.91 175.43 87.67 175.43L87.7 175.44Z" fill="#231F20"/>
<path d="M103.58 181.61C103.58 183.74 104.23 186.45 108.07 186.45C109.512 186.457 110.944 186.209 112.3 185.72L112.72 188.13C111.141 188.722 109.466 189.014 107.78 188.99C102.64 188.99 100.43 185.99 100.43 180.91C100.43 176.38 102.3 172.91 107.22 172.91C111.9 172.91 113.49 175.76 113.49 179.17C113.489 180.006 113.405 180.84 113.24 181.66L103.58 181.61ZM110.48 178.76C110.48 177.05 109.97 175.35 107.22 175.35C104.47 175.35 103.75 177.45 103.61 179.4H110.45C110.45 179.18 110.48 179 110.48 178.76Z" fill="#231F20"/>
<path d="M129.51 179C129.51 175.81 127.67 175.47 125.73 175.47C124.627 175.456 123.528 175.607 122.47 175.92V188.7H119.35V174.12C121.424 173.278 123.642 172.85 125.88 172.86C130.33 172.86 132.66 174.43 132.66 179.21V188.66H129.51V179Z" fill="#231F20"/>
<path d="M141.61 181.61C141.61 183.74 142.27 186.45 146.1 186.45C147.542 186.457 148.974 186.209 150.33 185.72L150.76 188.13C149.181 188.721 147.506 189.013 145.82 188.99C140.67 188.99 138.46 185.99 138.46 180.91C138.46 176.38 140.33 172.91 145.25 172.91C149.93 172.91 151.52 175.76 151.52 179.17C151.519 180.006 151.435 180.84 151.27 181.66L141.61 181.61ZM148.51 178.76C148.51 177.05 148 175.35 145.25 175.35C142.5 175.35 141.78 177.45 141.64 179.4H148.48C148.48 179.18 148.51 179 148.51 178.76Z" fill="#231F20"/>
<path d="M158.6 173.2V171.88C158.6 167.61 161.24 166.71 163.77 166.71C164.653 166.678 165.535 166.793 166.38 167.05L165.98 169.48C165.416 169.328 164.834 169.254 164.25 169.26C162.57 169.26 161.75 169.96 161.75 171.8V173.2H166V175.71H161.77V188.66H158.6V175.71H156.21V173.2H158.6Z" fill="#231F20"/>
<path d="M176.12 166.18L177.57 167.97L172.97 171.35L171.78 169.84L176.12 166.18ZM175 188.66H171.87V173.2H175V188.66Z" fill="#231F20"/>
<path d="M188.45 175.43C184.53 175.43 184.08 178.43 184.08 180.88C184.08 183.57 184.59 186.42 188.5 186.42C189.558 186.419 190.608 186.23 191.6 185.86L192.22 188.24C190.958 188.782 189.592 189.038 188.22 188.99C182.66 188.99 180.92 185.58 180.92 180.91C180.92 176.24 182.68 172.91 188.22 172.91C189.593 172.862 190.96 173.122 192.22 173.67L191.6 176C190.585 175.65 189.523 175.457 188.45 175.43Z" fill="#231F20"/>
<path d="M201.48 169.2C201.51 169.577 201.426 169.955 201.238 170.283C201.05 170.612 200.768 170.876 200.427 171.041C200.087 171.206 199.704 171.265 199.33 171.21C198.956 171.154 198.607 170.987 198.329 170.73C198.052 170.473 197.858 170.138 197.773 169.769C197.689 169.401 197.718 169.015 197.856 168.663C197.995 168.31 198.236 168.008 198.549 167.795C198.862 167.583 199.232 167.469 199.61 167.47C199.851 167.437 200.097 167.458 200.329 167.531C200.561 167.605 200.774 167.728 200.953 167.894C201.132 168.059 201.272 168.262 201.363 168.488C201.454 168.714 201.494 168.957 201.48 169.2ZM201.17 188.66H198.05V173.2H201.17V188.66Z" fill="#231F20"/>
<path d="M214.12 189C208.81 189 207.12 185.51 207.12 180.95C207.12 176.39 208.79 172.87 214.12 172.87C219.45 172.87 221.12 176.39 221.12 180.95C221.12 185.51 219.43 189 214.12 189ZM214.12 175.44C210.52 175.44 210.29 178.66 210.29 180.95C210.29 183.24 210.52 186.43 214.12 186.43C217.72 186.43 217.96 183.24 217.96 180.95C217.96 178.66 217.73 175.43 214.12 175.43V175.44Z" fill="#231F20"/>
<path d="M232.9 179.43C235.37 180.21 238.04 180.97 238.04 184.43C238.04 187.68 235.48 188.96 231.79 188.96C230.122 188.969 228.463 188.706 226.88 188.18L227.3 185.77C228.676 186.217 230.113 186.447 231.56 186.45C233.86 186.45 235 185.83 235 184.63C235 183.43 233.75 182.78 231.76 182.23C228.76 181.39 226.48 180.46 226.48 177.33C226.48 173.98 229.6 172.83 232.81 172.83C234.337 172.843 235.856 173.051 237.33 173.45L236.85 175.85C235.597 175.517 234.306 175.349 233.01 175.35C230.83 175.35 229.55 175.99 229.55 177.22C229.55 178.45 230.91 178.79 232.9 179.43Z" fill="#231F20"/>
<path d="M173.34 19.57C171.21 11.75 166.06 7.3 157.9 6.27C150.713 5.36333 143.52 4.47 136.32 3.59C130.94 2.51 125.48 2.08 120.06 1.29C116.58 0.789995 113.06 0.389995 109.57 0.0299955C108.488 -0.00445537 107.404 0.0456972 106.33 0.179995C102.339 0.626221 98.6736 2.59662 96.1 5.68C93.2 8.41 92.19 11.95 91.65 15.68C91.43 17.24 91.65 19.23 90.78 20.24C89.91 21.25 87.78 20.38 86.3 20.61C82.5168 20.1905 78.6934 20.8856 75.3 22.61L75.19 22.66L75.08 22.72C68.96 26 65.79 31.19 65.68 37.98C65.5 48.94 65.5 59.9067 65.68 70.88C65.8 77.42 68.92 82.46 74.79 85.72C77.6424 87.4452 80.9391 88.2937 84.27 88.16V99.09C84.15 102.32 86.08 104.49 89.12 104.55C92.16 104.61 94 102.32 94 99.09V88.09H109.66C118.66 88.2 127.66 88.27 136.66 88.09C145.31 88.21 153.39 80.66 153.78 71.92C153.87 70.02 154.36 69.3 156.37 68.92C163.9 67.36 168.81 61.56 169.77 53.87C170.89 44.97 172.18 36.1 173.4 27.22C173.45 26.85 173.34 26.39 173.86 26.22V20.22C173.48 20.08 173.42 19.83 173.34 19.57ZM144 58.35C144 59.3 143.72 59.63 142.73 59.61C140.83 59.61 138.93 59.61 137.03 59.61H111.64C109.48 59.61 107.31 59.5 105.15 59.61C104.488 59.5906 103.829 59.7067 103.214 59.9512C102.599 60.1956 102.04 60.5632 101.571 61.0314C101.103 61.4996 100.736 62.0585 100.491 62.6739C100.247 63.2893 100.131 63.9481 100.15 64.61C100.15 67.43 102.15 69.29 105.3 69.3C107.4 69.3 109.49 69.3 111.59 69.23H137C138.82 69.23 140.64 69.37 142.45 69.23C143.8 69.16 144.03 69.7 143.95 70.86C143.68 74.6 141.27 77.14 136.59 78.48H109.68H94V61.39C94 57.72 94.12 54.05 94 50.39C93.9237 49.1221 93.3601 47.9328 92.427 47.071C91.4939 46.2093 90.2637 45.7417 88.9938 45.7663C87.7238 45.7908 86.5126 46.3055 85.6135 47.2027C84.7144 48.1 84.1972 49.3101 84.17 50.58C84.17 54.19 84.17 57.79 84.23 61.4V78.56C80.41 78.34 77.38 76.73 75.72 72.73C75.72 60.9633 75.6933 49.1933 75.64 37.42C75.713 36.6246 75.8603 35.8379 76.08 35.07C76.895 33.8513 77.878 32.7538 79 31.81C81.24 30.11 83.81 30.36 86.33 30.2H112.91H137.02C141.02 31.31 143.77 33.64 143.91 37.85C144.08 44.7 143.92 51.53 144 58.35ZM163.7 24.07C163.27 27.45 162.81 30.84 162.35 34.22C161.51 40.53 160.67 46.83 159.79 53.13C159.669 54.3788 159.221 55.5736 158.49 56.5938C157.76 57.6139 156.773 58.4232 155.63 58.94C154.23 59.62 153.81 59.38 153.82 57.79C153.87 50.79 153.99 43.84 153.75 36.88C153.46 28.29 145.75 20.94 137.03 20.64H105.92L102.05 20.56C101.58 20.56 101.17 20.56 101.05 19.87C100.818 17.8251 101.253 15.76 102.289 13.9818C103.325 12.2036 104.907 10.8071 106.8 10C107.924 9.73702 109.089 9.69288 110.23 9.87C118.737 11.0033 127.247 12.1167 135.76 13.21C143.04 14.21 150.33 15.15 157.6 16.21C158.515 16.3259 159.398 16.6215 160.198 17.0798C160.999 17.5381 161.701 18.15 162.264 18.8804C162.827 19.6108 163.24 20.4452 163.48 21.3359C163.719 22.2265 163.781 23.1556 163.66 24.07H163.7Z" fill="#231F20"/>
</g>
<defs>
<clipPath id="clip0">
<rect width="240.82" height="188.99" fill="white"/>
</clipPath>
</defs>
</svg>
