<?xml version="1.0" encoding="utf-8"?>
<!-- Generator: Adobe Illustrator 25.3.1, SVG Export Plug-In . SVG Version: 6.00 Build 0)  -->
<svg version="1.1" id="Camada_1" xmlns="http://www.w3.org/2000/svg" xmlns:xlink="http://www.w3.org/1999/xlink" x="0px" y="0px"
	 viewBox="0 0 150 42" style="enable-background:new 0 0 150 42;" xml:space="preserve">
<g>
	<path d="M131,7.9l2.8-2.8l-2.9-2.9l-2.8,2.8h-19.1v19.1l-2.8,2.8l2.9,2.9l2.8-2.8H131V7.9z M113.1,9.1h10.9l-10.9,10.9V9.1z
		 M116,22.9L126.9,12v10.9H116z"/>
	<g>
		<g>
			<path d="M20.5,14.6c0.3,0,0.6,0,0.9,0.1c0.3,0.1,0.6,0.1,0.9,0.2c0.3,0.1,0.6,0.3,0.8,0.4c0.3,0.2,0.5,0.4,0.7,0.6
				c0.2,0.2,0.3,0.5,0.5,0.8s0.2,0.6,0.2,1c0,0.3-0.1,0.6-0.2,1c-0.1,0.3-0.3,0.6-0.6,0.9c-0.2,0.2-0.5,0.5-0.7,0.6
				c-0.3,0.2-0.5,0.3-0.8,0.3v0c0.3,0,0.7,0.1,1,0.2c0.3,0.1,0.7,0.3,0.9,0.6s0.5,0.6,0.7,0.9c0.2,0.4,0.3,0.8,0.3,1.2
				c0,0.5-0.1,0.9-0.2,1.3c-0.2,0.4-0.4,0.8-0.7,1c-0.3,0.3-0.6,0.5-1,0.7c-0.4,0.2-0.8,0.4-1.2,0.5c-0.4,0.1-0.9,0.1-1.4,0.1H17
				c-0.3,0-0.5-0.1-0.7-0.2c-0.1-0.1-0.2-0.3-0.2-0.7V15.5c0-0.3,0.1-0.5,0.2-0.7c0.1-0.1,0.3-0.2,0.7-0.2H20.5z M19.8,16.3h-1.4
				v3.6l1.2,0c0.3,0,0.5,0,0.7-0.1c0.2,0,0.5-0.1,0.7-0.2c0.2-0.1,0.4-0.2,0.6-0.4c0.2-0.1,0.3-0.3,0.4-0.5c0.1-0.2,0.2-0.5,0.2-0.8
				C22.2,16.8,21.4,16.3,19.8,16.3z M18.4,21.4v4.2h1.9c0.3,0,0.5,0,0.7-0.1c0.2,0,0.5-0.1,0.7-0.2s0.4-0.2,0.6-0.4
				c0.2-0.2,0.3-0.3,0.4-0.6c0.1-0.2,0.1-0.5,0.1-0.8c0-0.2,0-0.5-0.1-0.7c-0.1-0.2-0.2-0.4-0.3-0.5c-0.1-0.1-0.3-0.3-0.4-0.4
				c-0.2-0.1-0.3-0.2-0.5-0.3c-0.2-0.1-0.4-0.1-0.6-0.2c-0.2,0-0.4-0.1-0.6-0.1c-0.2,0-0.4,0-0.6,0L18.4,21.4z"/>
			<path d="M35.6,25.5h4.9c0.3,0,0.5,0.1,0.6,0.2c0.1,0.1,0.2,0.3,0.2,0.6v0.1c0,0.3-0.1,0.5-0.2,0.6c-0.1,0.1-0.3,0.2-0.6,0.2h-6.3
				c-0.3,0-0.5-0.1-0.7-0.2c-0.1-0.1-0.2-0.3-0.2-0.7V15.5c0-0.3,0.1-0.5,0.2-0.7c0.1-0.1,0.3-0.2,0.7-0.2h0.6
				c0.3,0,0.5,0.1,0.7,0.2c0.1,0.1,0.2,0.3,0.2,0.7V25.5z"/>
			<path d="M53.7,17.9L50,26.4c-0.1,0.3-0.3,0.5-0.4,0.6c-0.1,0.1-0.4,0.1-0.7,0.1h-0.5c-0.4,0-0.6-0.1-0.6-0.4c0-0.1,0-0.2,0.1-0.4
				l5.1-11.2c0.1-0.2,0.2-0.4,0.3-0.5c0.1-0.1,0.3-0.1,0.6-0.1h0.1c0.3,0,0.4,0,0.6,0.1c0.1,0.1,0.2,0.2,0.3,0.5l5,11.2
				c0.1,0.2,0.1,0.3,0.1,0.4c0,0.1,0,0.2-0.1,0.3c-0.1,0.1-0.3,0.1-0.5,0.1h-0.8c-0.4,0-0.6,0-0.7-0.1c-0.1-0.1-0.3-0.3-0.4-0.6
				L53.7,17.9z"/>
			<path d="M75.5,26.8c-0.8,0.4-1.7,0.7-2.7,0.7c-0.8,0-1.5-0.1-2.1-0.3c-0.7-0.2-1.2-0.5-1.7-0.9c-0.5-0.4-0.9-0.9-1.3-1.4
				c-0.4-0.5-0.6-1.1-0.8-1.8c-0.2-0.7-0.3-1.4-0.3-2.1c0-0.7,0.1-1.4,0.3-2.1c0.2-0.7,0.5-1.3,0.8-1.8c0.4-0.5,0.8-1,1.3-1.4
				c0.5-0.4,1.1-0.7,1.8-0.9c0.7-0.2,1.4-0.3,2.2-0.3c1,0,1.8,0.2,2.6,0.6c0.8,0.4,1.4,1,1.8,1.8c0.1,0.2,0.2,0.3,0.2,0.4
				c0,0.1,0,0.2-0.1,0.3c-0.1,0.1-0.2,0.2-0.4,0.2l0,0c-0.2,0.1-0.3,0.1-0.5,0.1c-0.1,0-0.2,0-0.3-0.1c-0.1-0.1-0.2-0.2-0.3-0.3
				c-0.8-0.9-1.7-1.4-2.9-1.4c-0.5,0-1,0.1-1.5,0.3c-0.5,0.2-0.8,0.4-1.1,0.7c-0.3,0.3-0.6,0.7-0.8,1.1S69.1,19,69,19.5
				c-0.1,0.5-0.2,0.9-0.2,1.5c0,0.5,0.1,1,0.2,1.5c0.1,0.5,0.3,0.9,0.5,1.3c0.2,0.4,0.5,0.8,0.8,1.1c0.3,0.3,0.7,0.5,1.2,0.7
				c0.4,0.2,0.9,0.3,1.5,0.3c1.3,0,2.3-0.5,3.2-1.5c0.2-0.3,0.4-0.4,0.6-0.4c0.1,0,0.2,0,0.4,0.1l0,0c0.3,0.2,0.4,0.3,0.4,0.5
				c0,0.1-0.1,0.2-0.2,0.4C76.9,25.7,76.3,26.3,75.5,26.8z"/>
			<path d="M95.6,26.6c0.1,0.2,0.2,0.3,0.2,0.4c0,0.2-0.2,0.2-0.5,0.2h-1.2c-0.4,0-0.6,0-0.8-0.1c-0.2-0.1-0.4-0.3-0.6-0.5L88,20.8
				v5.6c0,0.3-0.1,0.5-0.2,0.7c-0.1,0.1-0.3,0.2-0.7,0.2h-0.6c-0.3,0-0.5-0.1-0.7-0.2c-0.1-0.1-0.2-0.3-0.2-0.7V15.5
				c0-0.3,0.1-0.5,0.2-0.7c0.1-0.1,0.3-0.2,0.7-0.2h0.6c0.3,0,0.5,0.1,0.7,0.2c0.1,0.1,0.2,0.3,0.2,0.7v4.8l4.4-5
				c0.2-0.3,0.5-0.5,0.6-0.5c0.2-0.1,0.4-0.1,0.8-0.1h0.9c0.3,0,0.5,0.1,0.5,0.2c0,0.1-0.1,0.2-0.2,0.4l-4.6,5.1L95.6,26.6z"/>
		</g>
		<path d="M16.2,34.7H17V38h1.7v0.8h-2.6V34.7z"/>
		<path d="M25.5,38h-1.8l-0.3,0.7h-0.9l1.6-4.1h1.1l1.6,4.1h-0.9L25.5,38z M23.9,37.3h1.3l-0.7-1.9L23.9,37.3z"/>
		<path d="M31.4,36v2.7h-0.9v-4.1h0.9l1.9,2.6v-2.6h0.9v4.1h-0.8L31.4,36z"/>
		<path d="M41.5,37.4l0.7,0.4c-0.3,0.5-0.7,0.9-1.6,1L40.5,39c0.1,0,0.1-0.1,0.2-0.1c0.2,0,0.4,0.2,0.4,0.4c0,0.3-0.3,0.5-0.7,0.5
			c-0.3,0-0.5-0.1-0.7-0.2l0.2-0.3c0.2,0.1,0.3,0.2,0.5,0.2c0.2,0,0.3-0.1,0.3-0.2c0-0.1-0.1-0.2-0.2-0.2c-0.1,0-0.1,0-0.2,0.1
			l-0.3-0.2l0.1-0.4c-1.1-0.1-1.9-0.9-1.9-2.1c0-1.2,0.9-2.1,2.1-2.1c0.9,0,1.4,0.5,1.7,1l-0.7,0.4c-0.2-0.3-0.5-0.6-1-0.6
			c-0.7,0-1.2,0.6-1.2,1.3c0,0.8,0.5,1.3,1.2,1.3C40.9,38,41.3,37.8,41.5,37.4z"/>
		<path d="M48.8,38H47l-0.3,0.7h-0.9l1.6-4.1h1.1l1.6,4.1H49L48.8,38z M47.2,37.3h1.3l-0.7-1.9L47.2,37.3z"/>
		<path d="M57.4,35.8l-1.1,2.9h-0.4l-1.1-2.9v2.9h-0.9v-4.1h1.2l1,2.5l1-2.5h1.2v4.1h-0.9V35.8z"/>
		<path d="M62.6,34.7h2.9v0.7h-2v0.9h2V37h-2V38h2v0.7h-2.9V34.7z"/>
		<path d="M70.6,36v2.7h-0.9v-4.1h0.9l1.9,2.6v-2.6h0.9v4.1h-0.8L70.6,36z"/>
		<path d="M78.6,35.4h-1.2v-0.8h3.2v0.8h-1.2v3.3h-0.9V35.4z"/>
		<path d="M86.5,34.6c1.2,0,2.1,0.9,2.1,2.1s-0.9,2.1-2.1,2.1c-1.2,0-2.1-0.9-2.1-2.1S85.3,34.6,86.5,34.6z M86.5,35.4
			c-0.7,0-1.2,0.6-1.2,1.3c0,0.8,0.5,1.3,1.2,1.3c0.7,0,1.2-0.6,1.2-1.3C87.7,35.9,87.3,35.4,86.5,35.4z"/>
		<path d="M93,37.5c0.3,0.3,0.7,0.5,1.3,0.5c0.5,0,0.7-0.2,0.7-0.5c0-0.3-0.4-0.4-0.8-0.5c-0.7-0.2-1.5-0.3-1.5-1.2
			c0-0.7,0.6-1.2,1.5-1.2c0.6,0,1.2,0.2,1.6,0.6l-0.5,0.6c-0.3-0.3-0.8-0.4-1.2-0.4c-0.4,0-0.6,0.2-0.6,0.4c0,0.3,0.3,0.4,0.8,0.5
			c0.7,0.2,1.5,0.4,1.5,1.3c0,0.7-0.5,1.3-1.6,1.3c-0.8,0-1.3-0.3-1.7-0.6L93,37.5z"/>
	</g>
</g>
</svg>
