<svg width="160" height="160" viewBox="0 0 160 160" fill="none" xmlns="http://www.w3.org/2000/svg">
<path d="M156.25 33.7224C153.212 22.6354 145.914 16.3182 134.328 14.8418C124.12 13.55 113.897 12.3008 103.675 11.0373C96.0501 9.50416 88.2838 8.89373 80.5884 7.77226C75.6474 7.06246 70.6781 6.49463 65.6945 5.98357C64.1895 5.82742 62.6277 6.11134 61.0943 6.19651C55.2731 7.04827 50.3179 9.43318 46.5696 14.0043C42.4521 17.8797 41.0181 22.9051 40.2514 28.2286C39.9391 30.4431 40.2656 33.2681 39.0162 34.7019C37.7951 36.1073 34.8277 34.8864 32.6554 35.2271C27.2743 34.7729 21.7938 35.4827 16.9807 38.1089C16.9239 38.1373 16.8813 38.1657 16.8245 38.1941C16.7677 38.2225 16.7251 38.2509 16.6683 38.2793C16.6683 38.2793 16.6683 38.2793 16.6683 38.2935C7.97903 42.9497 3.47821 50.3174 3.32204 59.9564C3.06647 75.5151 3.05227 91.088 3.32204 106.661C3.47821 115.945 7.92224 123.1 16.2565 127.742C20.4308 130.354 24.9742 131.248 29.7022 131.191C29.7022 136.671 29.7022 144.607 29.7022 146.622C29.5318 151.208 32.2721 154.288 36.6025 154.373C40.7058 154.459 43.6022 151.208 43.517 146.622C43.517 144.592 43.517 136.543 43.517 131.049C46.4702 131.049 49.4234 131.049 52.3908 131.049C56.8491 131.049 61.3073 131.049 65.7655 131.049C78.5296 131.22 91.2938 131.305 104.058 131.021C116.339 131.191 127.811 120.474 128.365 108.066C128.493 105.369 129.189 104.347 132.042 103.765C142.734 101.565 149.705 93.331 151.068 82.4001C152.644 69.78 154.476 57.174 156.208 44.568C156.279 44.0428 156.123 43.3898 156.875 43.1484C156.875 40.2951 156.875 37.4417 156.875 34.5883C156.449 34.4464 156.35 34.0915 156.25 33.7224ZM114.522 88.7741C114.536 90.1227 114.124 90.6054 112.733 90.5628C110.035 90.4918 107.338 90.5912 104.64 90.6338C92.6426 90.6338 80.6451 90.6338 68.6477 90.6338C65.5667 90.6054 62.4999 90.4634 59.4331 90.577C55.2305 90.7189 52.334 93.7427 52.405 97.6607C52.476 101.678 55.3298 104.304 59.7171 104.333C62.6987 104.347 65.6661 104.262 68.6477 104.233C80.6451 104.233 92.6426 104.233 104.64 104.233C107.224 104.276 109.808 104.446 112.392 104.304C114.295 104.205 114.636 104.972 114.508 106.618C114.139 111.913 110.703 115.533 104.058 117.436C91.3222 117.45 78.5864 117.478 65.8507 117.492C61.3641 117.492 56.8774 117.492 52.405 117.492C49.4518 117.492 46.4844 117.492 43.5312 117.492C43.5312 115.264 43.5312 113.049 43.5312 110.82C43.5312 104.915 43.5312 99.0235 43.5312 93.118C43.5596 87.9081 43.7158 82.6982 43.6022 77.4883C43.517 73.4709 40.4786 70.7879 36.4889 70.8447C32.5418 70.9014 29.6738 73.7264 29.6596 77.7581C29.6312 82.8828 29.7164 87.9933 29.7448 93.118C29.7448 99.0235 29.7448 104.915 29.7448 110.82C29.7448 113.049 29.7448 115.264 29.7448 117.492C24.3211 117.18 20.0191 114.895 17.6622 109.216C17.6196 92.5076 17.5486 75.799 17.5486 59.0905C17.5486 57.9832 17.9461 56.8617 18.1591 55.7544C19.3943 54.1077 20.5302 52.4468 22.2624 51.1265C25.4286 48.7132 29.0917 49.0539 32.6696 48.841C37.5112 48.841 42.3385 48.841 47.1801 48.841C51.6241 48.841 56.0823 48.841 60.5264 48.841C63.8203 48.841 67.1001 48.841 70.3941 48.841C81.8094 48.8694 93.2247 48.8836 104.626 48.912C110.248 50.4735 114.21 53.7954 114.408 59.7719C114.707 69.3967 114.479 79.0925 114.522 88.7741ZM142.492 40.1105C141.896 44.9229 141.229 49.7212 140.59 54.5336C139.383 63.477 138.204 72.4346 136.955 81.378C136.43 85.0974 134.57 87.9081 131.049 89.6258C129.061 90.5912 128.465 90.2505 128.479 87.9933C128.55 78.0988 128.706 68.19 128.379 58.3097C127.968 46.1296 116.992 35.6814 104.64 35.2555C93.2247 35.2555 81.8094 35.2555 70.3941 35.2555C67.1001 35.2555 63.8203 35.2555 60.5264 35.2555C58.6948 35.2271 56.8632 35.1987 55.0317 35.1562C54.3644 35.142 53.7823 35.1845 53.6687 34.1766C53.0014 28.1718 56.1675 22.607 61.7758 20.1085C63.3802 19.6968 64.9988 19.6968 66.6316 19.9098C78.7142 21.5139 90.7968 23.0754 102.879 24.6512C113.216 26.0424 123.552 27.4052 133.874 28.8532C139.567 29.6481 143.202 34.4748 142.492 40.1105Z" fill="url(#paint0_linear)"/>
<defs>
<linearGradient id="paint0_linear" x1="28.3891" y1="24.7954" x2="124.225" y2="120.646" gradientUnits="userSpaceOnUse">
<stop offset="2.19087e-07" stop-color="#F68D5E"/>
<stop offset="1" stop-color="#FBB040"/>
</linearGradient>
</defs>
</svg>
