<svg xmlns="http://www.w3.org/2000/svg" xmlns:xlink="http://www.w3.org/1999/xlink" viewBox="0 0 1919.62 1080.91"><defs><style>.cls-1,.cls-10,.cls-11,.cls-12,.cls-13,.cls-2,.cls-3,.cls-4,.cls-5,.cls-6,.cls-7,.cls-8,.cls-9{fill:none;}.cls-10,.cls-11,.cls-12,.cls-13,.cls-2,.cls-3,.cls-4,.cls-5,.cls-6,.cls-7,.cls-8,.cls-9{stroke-miterlimit:10;}.cls-2{stroke:url(#linear-gradient);}.cls-3{stroke:url(#linear-gradient-2);}.cls-4,.cls-5{stroke:#24a8ba;}.cls-5{opacity:0.5;isolation:isolate;}.cls-6{stroke:url(#linear-gradient-3);}.cls-7{stroke:url(#linear-gradient-4);}.cls-8{stroke:url(#linear-gradient-5);}.cls-9{stroke:url(#linear-gradient-6);}.cls-10{stroke:url(#linear-gradient-7);}.cls-11{stroke:url(#linear-gradient-8);}.cls-12{stroke:url(#linear-gradient-9);}.cls-13{stroke:url(#linear-gradient-10);}.cls-14{opacity:0.35;}.cls-15{fill:url(#Novo_padrão_5);}</style><linearGradient id="linear-gradient" x1="-36288.8" y1="-28515.05" x2="-35934.06" y2="-28515.05" gradientTransform="translate(36109.63 28592.31)" gradientUnits="userSpaceOnUse"><stop offset="0" stop-color="#145aad"/><stop offset="0.33" stop-color="#24a8ba"/><stop offset="0.7" stop-color="#24a8ba"/><stop offset="1" stop-color="#145aad"/></linearGradient><linearGradient id="linear-gradient-2" x1="-36285.1" y1="-28573.89" x2="-35930.5" y2="-28573.89" xlink:href="#linear-gradient"/><linearGradient id="linear-gradient-3" x1="-35934.53" y1="-28515.05" x2="-35579.79" y2="-28515.05" xlink:href="#linear-gradient"/><linearGradient id="linear-gradient-4" x1="-35930.83" y1="-28573.9" x2="-35576.23" y2="-28573.9" xlink:href="#linear-gradient"/><linearGradient id="linear-gradient-5" x1="-36462.24" y1="-28366.89" x2="-36107.63" y2="-28366.89" xlink:href="#linear-gradient"/><linearGradient id="linear-gradient-6" x1="-36111.63" y1="-28308.06" x2="-35756.92" y2="-28308.06" xlink:href="#linear-gradient"/><linearGradient id="linear-gradient-7" x1="-36107.97" y1="-28366.89" x2="-35753.36" y2="-28366.89" xlink:href="#linear-gradient"/><linearGradient id="linear-gradient-8" x1="-35757.35" y1="-28308.06" x2="-35402.65" y2="-28308.06" xlink:href="#linear-gradient"/><linearGradient id="linear-gradient-9" x1="-36285.1" y1="-28159.92" x2="-35930.5" y2="-28159.92" xlink:href="#linear-gradient"/><linearGradient id="linear-gradient-10" x1="-35930.83" y1="-28159.92" x2="-35576.23" y2="-28159.92" xlink:href="#linear-gradient"/><pattern id="Novo_padrão_5" data-name="Novo padrão 5" width="354.27" height="413.98" patternTransform="matrix(1, 0, 0, -1, -277, 612)" patternUnits="userSpaceOnUse" viewBox="0 0 354.27 413.98"><rect class="cls-1" width="354.27" height="413.98"/><rect class="cls-1" width="354.27" height="413.98"/><path class="cls-2" d="M175.21,36.75l-81,81.42a10.19,10.19,0,0,1-14.41,0l0,0L-4.86,33.34H-162.11l71.76,72.11L-57,72.61l10,9.89-36.27,35.75a10.21,10.21,0,0,1-14.37-.07l-81.18-81.59"/><path class="cls-3" d="M-175.47,19.23H-18.69l-71.5-71.85L-144.55,1.85l-10-10L-97.4-65.42a10.13,10.13,0,0,1,7.22-3,10.12,10.12,0,0,1,7.21,3L87,105.41l78.84-79.23L87-53,46-11.72c-.13-.07-10.13-9.07-10.06-9.9L79.73-65.77a10.19,10.19,0,0,1,14.41,0l0,0L178.58,19l.19.2"/><path class="cls-4" d="M29.48-15.16A10.52,10.52,0,0,0,19-4.64,10.52,10.52,0,0,0,29.48,5.88,10.52,10.52,0,0,0,40-4.64,10.53,10.53,0,0,0,29.48-15.16Z"/><path class="cls-5" d="M0,78.63a8.27,8.27,0,0,0-5.87,2.43l-29.06,29.06a3.67,3.67,0,0,0,0,5.19h0a3.67,3.67,0,0,0,5.19,0h0L-.67,86.25a1,1,0,0,1,1.34,0l29.06,29.06a3.68,3.68,0,1,0,5.2-5.2L5.87,81.05A8.27,8.27,0,0,0,0,78.63Z"/><path class="cls-6" d="M529.48,36.75l-81,81.42a10.19,10.19,0,0,1-14.41,0l0,0L349.42,33.34H192.16l71.76,72.11L297.24,72.6l10.07,9.89L271,118.26a10.21,10.21,0,0,1-14.37-.07L175.45,36.6"/><path class="cls-7" d="M178.8,19.23H335.58l-71.5-71.85L209.72,1.85l-10-10,57.15-57.27a10.19,10.19,0,0,1,14.41,0l0,0L441.24,105.41l78.84-79.23L441.25-53l-41,41.3c-.13-.07-10.13-9.07-10.06-9.9L434-65.8a10.19,10.19,0,0,1,14.41,0l0,0L532.85,19l.19.2"/><path class="cls-4" d="M314.54,54.75a10.73,10.73,0,1,0,10.73,10.73A10.73,10.73,0,0,0,314.54,54.75Z"/><circle class="cls-4" cx="314.54" cy="65.37" r="3.73"/><path class="cls-5" d="M354.27,78.63a8.27,8.27,0,0,0-5.87,2.43l-29.06,29.06a3.68,3.68,0,0,0,5.2,5.2h0L353.6,86.26a1,1,0,0,1,1.34,0l29.06,29a3.68,3.68,0,1,0,5.2-5.2h0L360.14,81A8.27,8.27,0,0,0,354.27,78.63Z"/><path class="cls-8" d="M-352.61,226.22h156.78l-71.5-71.85-54.36,54.47-10-10,57.15-57.27a10.13,10.13,0,0,1,7.22-3,10.12,10.12,0,0,1,7.21,3l170,170.83,78.84-79.23L-90.15,154l-41,41.3c-.13-.07-10.13-9.07-10.06-9.9l43.79-44.15a10.12,10.12,0,0,1,7.23-3,10.12,10.12,0,0,1,7.22,3L1.45,226l.19.2"/><path class="cls-9" d="M352.35,243.74l-81,81.42a10.19,10.19,0,0,1-14.41,0l0,0-84.63-84.83H15l71.76,72.11,33.32-32.85,10.07,9.89L93.91,325.24a10.21,10.21,0,0,1-14.37-.07L-1.65,243.59"/><path class="cls-10" d="M1.66,226.22H158.45l-71.5-71.85L32.58,208.84l-10-10,57.15-57.27a10.19,10.19,0,0,1,14.41,0l0,0L264.11,312.4,343,233.17,264.12,154l-41,41.3c-.13-.07-10.13-9.07-10.06-9.9l43.79-44.15a10.19,10.19,0,0,1,14.41,0l0,0L355.72,226l.19.2"/><path class="cls-4" d="M137.41,261.74a10.73,10.73,0,1,0,10.73,10.73h0A10.74,10.74,0,0,0,137.41,261.74Z"/><circle class="cls-4" cx="137.41" cy="272.36" r="3.73"/><path class="cls-4" d="M206.61,191.83a10.52,10.52,0,1,0,10.52,10.52A10.52,10.52,0,0,0,206.61,191.83Z"/><circle class="cls-4" cx="206.61" cy="202.24" r="3.52"/><path class="cls-5" d="M177.14,285.61a8.27,8.27,0,0,0-5.87,2.43L142.21,317.1a3.68,3.68,0,0,0,5.2,5.2l29.06-29.06a1,1,0,0,1,1.34,0l29.06,29.06a3.68,3.68,0,0,0,5.2-5.2L183,288A8.27,8.27,0,0,0,177.14,285.61Z"/><path class="cls-5" d="M177.14,181.37A8.27,8.27,0,0,0,183,179l29.06-29.06a3.68,3.68,0,1,0-5.2-5.2L177.8,173.78a1,1,0,0,1-1.34,0L147.4,144.72a3.68,3.68,0,1,0-5.2,5.2L171.27,179A8.27,8.27,0,0,0,177.14,181.37Z"/><path class="cls-11" d="M706.62,243.74l-81,81.42a10.19,10.19,0,0,1-14.41,0l0,0-84.63-84.83H369.3l71.76,72.11,33.32-32.85,10.07,9.89-36.27,35.76a10.21,10.21,0,0,1-14.37-.07l-81.18-81.59"/><path class="cls-12" d="M-175.47,433.2H-18.69l-71.5-71.85-54.36,54.48-10-10,57.15-57.27a10.13,10.13,0,0,1,7.22-3,10.12,10.12,0,0,1,7.21,3L87,519.39l78.84-79.23L87,360.93l-41,41.3c-.13-.07-10.13-9.07-10.06-9.9l43.81-44.15a10.19,10.19,0,0,1,14.41,0l0,0L178.58,433l.19.2"/><path class="cls-4" d="M29.48,398.82A10.52,10.52,0,1,0,40,409.34h0A10.53,10.53,0,0,0,29.48,398.82Z"/><circle class="cls-4" cx="29.48" cy="409.23" r="3.52"/><path class="cls-5" d="M0,388.36a8.27,8.27,0,0,0,5.87-2.43l29-29.06a3.68,3.68,0,1,0-5.2-5.2h0l-29,29.06a1,1,0,0,1-1.34,0l-29.06-29a3.67,3.67,0,0,0-5.19,0h0a3.67,3.67,0,0,0,0,5.19h0l29.06,29A8.27,8.27,0,0,0,0,388.36Z"/><path class="cls-13" d="M178.8,433.2H335.58l-71.5-71.85-54.36,54.48-10-10,57.15-57.27a10.19,10.19,0,0,1,14.41,0l0,0L441.24,519.39l78.84-79.23-78.83-79.23-41,41.3c-.13-.07-10.13-9.07-10.06-9.9L434,348.18a10.19,10.19,0,0,1,14.41,0l0,0,84.4,84.8.19.2"/><path class="cls-5" d="M354.27,388.36a8.27,8.27,0,0,0,5.87-2.43l29.06-29.06a3.68,3.68,0,1,0-5.2-5.2l-29.06,29.06a1,1,0,0,1-1.34,0l-29.06-29a3.68,3.68,0,1,0-5.2,5.2l29.06,29A8.27,8.27,0,0,0,354.27,388.36Z"/></pattern></defs><title>background-image</title><g id="Layer_2" data-name="Layer 2"><g id="Layer_1-2" data-name="Layer 1"><g id="Layer_2-2" data-name="Layer 2" class="cls-14"><g id="Camada_1" data-name="Camada 1"><rect class="cls-15" width="1919.62" height="1080.91"/></g></g></g></g></svg>